<svg height='100px' width='100px'  fill="#682712" xmlns="http://www.w3.org/2000/svg" xmlns:xlink="http://www.w3.org/1999/xlink" version="1.1" x="0px" y="0px" viewBox="0 0 128 128" style="enable-background:new 0 0 128 128;" xml:space="preserve"><g><path d="M107.7307739,98.3422241l-7.744812-22.3192749C96.6575317,66.4310303,87.6187744,60,77.4657593,60H77.447876   c-1.5913086,0-3.1174316,0.6321411-4.2426758,1.7573242l-1.9104614,1.9105225   c-2.390686,2.390625-6.2697144,2.3807983-8.6481934-0.0219727l-1.8481445-1.8669434   C59.6714478,60.6405029,58.1361084,60,56.5343018,60h-0.000061c-10.1530151,0-19.1917725,6.4310303-22.5202026,16.0229492   l-7.744812,22.3192749c-0.8289185,2.388916-0.9595947,4.9646606-0.3766479,7.4251709v0.000061   C27.3134155,111.7648315,32.6691895,116,38.8326416,116H43h0.0612793h6.4951172h1.223877H53h3.6571655H57v-11.5576172   l-0.3428345-0.0540771L51,103.4960327l-1-0.1577148l-1-0.1577148l-5.0332031-0.7938843   c-0.0241699-0.0038452-0.0460815-0.0145264-0.0700684-0.0189209c-0.8265991-0.1511841-1.5547485-0.6351318-2.0031738-1.3487549   c-0.4609375-0.7338867-0.5820312-1.6308594-0.3320312-2.4604492L43.5625,91.9125977   c0.159668-0.5292969,0.7211914-0.8266602,1.2456055-0.6694336c0.5288086,0.1591797,0.8286133,0.7167969,0.6694336,1.2456055   l-1.2246094,4.0674438l-0.7763672,2.5785522c-0.0844727,0.28125-0.0454102,0.5722656,0.1108398,0.8208008   c0.1054077,0.1679077,0.2616577,0.277771,0.4352417,0.3573608c0.0828247,0.0380249,0.1621094,0.083374,0.2556763,0.0982056   L49,101.1558838V69.1119385c0-2.2067261,1.7942505-4.0021973,3.9996338-4.0023193c0.000061,0,0.0001221,0,0.0001221,0   c0.5740967,0,1.1331787,0.1223755,1.6617432,0.3637085l29,13.2424316C85.0820923,79.364502,86,80.7927246,86,82.3543701v19.0185547   l3.7128906-0.6365967c0.277832-0.0473633,0.515625-0.2041016,0.6694336-0.440918   c0.1538086-0.2363281,0.2001953-0.5175781,0.1308594-0.7910156l-1.5776367-6.2104492   c-0.1357422-0.5351562,0.1875-1.0791016,0.7231445-1.215332c0.534668-0.1362305,1.0795898,0.1879883,1.215332,0.7231445   l1.5776367,6.2104492c0.2050781,0.8085938,0.0625,1.6733398-0.3920898,2.3730469   c-0.1674194,0.2575073-0.3822021,0.4733276-0.6155396,0.6658325c-0.4002075,0.3301392-0.8738403,0.5678101-1.3932495,0.6569214   L86,103.4024658l-1,0.1714478l-1,0.1714478l-3.5,0.6000977l-0.5,0.0856934V116h0.5H82h2.2197266h1.223877h8.385437H94h1.1673584   c6.1634521,0,11.5192261-4.2351685,12.9400635-10.2325439v-0.000061   C108.6903687,103.3068848,108.5596924,100.7311401,107.7307739,98.3422241z"></path><path d="M66,58c9.7026367,0,17.5903931-7.6824951,17.9642944-17.2935791   c6.4624023,5.1135864,12.0581665,5.1724854,14.8019409,4.7572632c1.0406494-0.1574707,1.8013306-1.0571289,1.8013306-2.1096191   c0-0.8499756-0.5050049-1.6098633-1.2845459-1.9486694c-5.1252441-2.227478-9.7081909-14.9367676-12.2121582-23.2376709   c-1.3060913-4.329895-5.2925415-7.2857056-9.8151245-7.2857056h-0.000061C71.5916138,10.882019,67,15.4736328,67,21.1376953   v0.9128418C66.6669922,22.0321655,66.3375854,22,66,22c-9.9411011,0-18,8.0588989-18,18S56.0588989,58,66,58z    M66.6607056,32.9571533c2.4124756,4.1113281,6.9173584,7.9737549,15.2785645,8.241272C81.3223267,49.4613037,74.4179077,56,66,56   c-8.8224487,0-16-7.1775513-16-16c0-1.0617065,0.109314-2.0978394,0.3075562-3.1022949   C58.9488525,36.81427,63.9139404,34.810791,66.6607056,32.9571533z"></path><path d="M84,82.3543701c0-0.78302-0.4569702-1.4940186-1.1692505-1.8192749l-29-13.2424927   c-0.274292-0.1252441-0.5562134-0.1830444-0.8311157-0.1829834C51.9471436,67.1096802,51,67.9573975,51,69.1119385v32.359436   l7.1557617,1.1287231c0.0444336,0.007019,0.0811157,0.0304565,0.12323,0.0429688   C58.6978149,102.7674561,59,103.140686,59,103.5878906v0.1829834v1.0128174l6.4984741,1.0388184   C63.0592041,107.5809937,61.5,110.4382324,61.5,113.6176147V114H59v1v1h4.5h10.1571655H78v-1v-1h-2.3428345h-1h-1H63.5v-0.3823853   c0-3.2947998,2.0688477-6.1283569,5.0786133-7.1795654c0.4259033-0.1487427,0.8704834-0.2622681,1.3308716-0.3358765   l0.2669067-0.0426636l1.4822998-0.2369385L78,104.8088379v-1.0128784v-0.2080688   c0-0.399292,0.2418213-0.739624,0.5909424-0.8989258c0.0769653-0.0350952,0.1533813-0.0720215,0.2401123-0.0869141L84,101.7158203   V82.3543701z M64,84c0-1.1046143,0.8954468-2,2-2h3c1.1045532,0,2,0.8953857,2,2v3c0,1.1045532-0.8954468,2-2,2h-3   c-1.1045532,0-2-0.8954468-2-2V84z M64,95c0-1.1046143,0.8954468-2,2-2h3c1.1045532,0,2,0.8953857,2,2v3   c0,1.1045532-0.8954468,2-2,2h-3c-1.1045532,0-2-0.8954468-2-2V95z M54,84c0-1.1046143,0.8954468-2,2-2h3   c1.1045532,0,2,0.8953857,2,2v3c0,1.1045532-0.8954468,2-2,2h-3c-1.1045532,0-2-0.8954468-2-2V84z M56,100   c-1.1045532,0-2-0.8954468-2-2v-3c0-1.1046143,0.8954468-2,2-2h3c1.1045532,0,2,0.8953857,2,2v3c0,1.1045532-0.8954468,2-2,2H56z    M81,98c0,1.1045532-0.8954468,2-2,2h-3c-1.1045532,0-2-0.8954468-2-2v-3c0-1.1046143,0.8954468-2,2-2h3   c1.1045532,0,2,0.8953857,2,2V98z M81,87c0,1.1045532-0.8954468,2-2,2h-3c-1.1045532,0-2-0.8954468-2-2v-3   c0-1.1046143,0.8954468-2,2-2h3c1.1045532,0,2,0.8953857,2,2V87z"></path></g></svg>
