<svg height='100px' width='100px'  fill="#682712" xmlns="http://www.w3.org/2000/svg" xmlns:xlink="http://www.w3.org/1999/xlink" version="1.1" x="0px" y="0px" viewBox="0 0 128 128" style="enable-background:new 0 0 128 128;" xml:space="preserve"><g><path d="M46.666748,107.0230713c0-8.1082153-6.5743408-11.2844238-11.3325195-11.2844238   c-4.7583008,0-11.1779785,3.699585-11.1779785,11.2844238c0,5.6141968-0.9460449,8.9821777-1.7659912,10.8468018   c-0.4100342,0.9326172,0.2648926,1.972168,1.2838135,1.972168c0.3623047,0,0.7106934,0.1400146,0.9724121,0.390686   l1.6716309,1.6015015c0.550293,0.5274048,1.4207764,0.5199585,1.9621582-0.0167236l0.9473877-0.9393311   c0.5692139-0.5643921,1.4945068-0.5391846,2.0322266,0.0552979l0.5924072,0.6550293   c0.571167,0.6315308,1.5681152,0.6142578,2.1171875-0.0366211l0.3674316-0.435791   c0.5617676-0.6658936,1.5875244-0.6658936,2.1491699,0l0.3675537,0.435791   c0.5489502,0.6508789,1.5458984,0.6681519,2.1170654,0.0366211l0.5925293-0.6550293   c0.5375977-0.5944824,1.4628906-0.6196899,2.0322266-0.0552979l0.9473877,0.9393311   c0.5413818,0.5366821,1.4117432,0.5441284,1.9621582,0.0167236l1.6715088-1.6015015   c0.2617188-0.2506714,0.6101074-0.390686,0.9724121-0.390686c1.0189209,0,1.6938477-1.0395508,1.2838135-1.972168   C47.612793,116.005249,46.666748,112.6372681,46.666748,107.0230713z M43,108c0,4.4111938-3.5887451,8-8,8s-8-3.5888062-8-8   c0-0.6916504,0.0975342-1.359436,0.2633057-2h5.7098389c0.5622559,0,1.0983887-0.2366333,1.4772949-0.6518555l0.7080078-0.7756958   c0.7687988-0.8424072,2.0852051-0.8724365,2.8914795-0.06604l0.9078369,0.9077759   C39.3327637,105.7892456,39.8415527,106,40.3719482,106h2.3647461C42.9024658,106.640564,43,107.3083496,43,108z"></path><path d="M35,30c5.5228271,0,10-4.4771729,10-10s-4.4771729-10-10-10s-10,4.4771729-10,10S29.4771729,30,35,30z M35,28   c-4.4112549,0-8-3.5888062-8-8c0-0.3393555,0.0283203-0.6716309,0.069458-1h7.3942871   c0.5349121,0,1.0474854-0.2142334,1.4232178-0.5949097l0.8295898-0.84021   c0.779541-0.7896118,2.0528564-0.7937012,2.8374023-0.0090942l0.8583984,0.8583984   C40.7875977,18.7893066,41.2961426,19,41.8266602,19h1.1038818C42.9716797,19.3283691,43,19.6606445,43,20   C43,24.4111938,39.4112549,28,35,28z"></path><path d="M43,65c0,12.7025146,10.2974854,23,23,23s23-10.2974854,23-23c0-12.7025757-10.2974854-23-23-23S43,52.2974243,43,65z    M58.5439453,45.392395c0.7816162,0.8201904,2.5800781,1.9199829,6.6092529,1.9199829   c4.3690186,0,6.7069092-1.2922974,7.7579346-2.119812c2.6627197,0.9321289,5.0759277,2.3829346,7.1290283,4.2359619h-5.6362305   c-0.4781494,0-0.9112549,0.2815552-1.1055908,0.7184448c-0.3061523,0.6888428-1.1608887,0.9329834-1.784668,0.5097046   l-0.453125-0.3074341c-0.2954102-0.2004395-0.6640625-0.2601929-1.0076904-0.1633301l-5.0987549,1.4378052   c-0.3330078,0.0939331-0.6098633,0.3258667-0.7606201,0.6372681l-1.0927734,2.2573242   c-0.1107178,0.2286377-0.2905273,0.416626-0.5140381,0.5373535l-2.2399902,1.2097168   c-0.3911133,0.2112427-0.6350098,0.6199341-0.6350098,1.0644531v0.0336304c0,0.6681519,0.541748,1.2097778,1.2098389,1.2097778   h3.6964111c0.4799805,0,0.8691406,0.3890991,0.8691406,0.8691406c0,0.4799805,0.3891602,0.8690796,0.8691406,0.8690796h0.9509277   c0.4799805,0,0.8691406-0.3890991,0.8691406-0.8690796v-1.0203247l3.4008789,1.8894043l0.151123,1.9650269l-1.0579834-1.0581055   H65.921875c-2.6243896,0-5.1445312,1.027832-7.0203857,2.8632812c-0.5935059,0.5807495-0.9281006,1.3760986-0.9281006,2.2064819   c0,0.8187256,0.3253174,1.6038818,0.9042969,2.1828003l0.1943359,0.194458   c0.5789795,0.5789185,1.3641357,0.9041748,2.1828613,0.9041748h1.6287842c0.8543701,0,1.5467529,0.6925049,1.5467529,1.5467529   v0.7583008l-1.3468018,4.2438354c-0.307251,0.9678955-0.0491943,2.0263062,0.6688232,2.7443237v0.000061   c0.5097656,0.5097656,1.2011719,0.7961426,1.9221191,0.7961426c2.3620605,0,4.4929199-1.4188843,5.4038086-3.5982666   l0.5852051-1.4002075c1.2900391-3.0861206,1.9541016-6.397644,1.9541016-9.7424927h0.7180176   c0.5217285,0,0.9447021-0.4229736,0.9447021-0.9447021v-0.7521362c0-0.5217896,0.4229736-0.9447021,0.9447021-0.9447021   s0.9447021-0.4229736,0.9447021-0.9447021v-2.4562378l5.9019775,5.9019165   c1.0319824,1.0320435,2.4035645,1.6408081,3.8518066,1.7316895c-0.6022949,8.4071045-6.1641846,15.4435425-13.7770996,18.2119141   c-0.7197266-0.828064-2.4863281-2.0334473-6.7084961-2.0334473c-4.1977539,0-6.515625,1.1915283-7.6235352,2.019104   c-1.1350098-0.4152832-2.2252197-0.9185181-3.2593994-1.5146484v-1.7937622c0-0.5950317-0.1553955-1.1797485-0.4505615-1.6963501   l-2.4243164-4.2426147c-0.295166-0.5166626-0.4504395-1.1013794-0.4504395-1.6964111v-1.7944336   c0-0.9291992-0.3781738-1.8184204-1.0476074-2.4629517c-0.637085-0.6135254-1.4871826-0.9562378-2.371582-0.9562378h-3.4868164   c-0.0443115-0.2588501-0.0847168-0.5188599-0.1195068-0.7807617l1.9886475-1.8607178   c1.2556152-1.1747437,2.0793457-2.7375488,2.3391113-4.4371948c0.3659668-2.3937378,1.8417969-4.4735718,3.9804688-5.609314   l1.7800293-0.9452515c0.9521484-0.5056152,1.5473633-1.4956055,1.5473633-2.5736084   c0-1.609314-1.3046875-2.9139404-2.9140625-2.9139404h-1.9659424   C53.8718262,47.7028198,56.0959473,46.3267212,58.5439453,45.392395z"></path><path d="M84.6008301,28.9152832C84.2266846,29.5238647,84,30.2332153,84,31c0,2.2091675,1.7907715,4,4,4   c1.8668213,0,3.4216309-1.2844849,3.862793-3.013855C91.9093018,31.9882812,91.9530029,32,92,32   c1.6037598,0,2.9022217-1.2618408,2.984375-2.8451538C96.2141113,29.6951294,97.5706787,30,99,30   c0.3530273,0,0.701416-0.0193481,1.0449219-0.0550537C100.265625,31.6654663,101.7194824,33,103.5,33   c0.2749023,0,0.5393066-0.0392456,0.7958984-0.0991821C104.8366699,34.135437,106.065918,35,107.5,35   c1.9329834,0,3.5-1.5670166,3.5-3.5c0-0.3433228-0.0646973-0.668396-0.1569824-0.9819336   c0.2353516-0.3492432,0.4157715-0.7436523,0.5141602-1.1791382c0.1098633-0.4855957,0.1115723-0.9700317,0.0224609-1.4293213   c-0.0700684-0.3615723,0.0249023-0.7440186,0.269043-1.0197754c0.4995117-0.5643311,0.87146-1.2537842,1.0494385-2.0413208   c0.3894043-1.7232056-0.2320557-3.4343262-1.467041-4.5286865C112.2978516,19.6014404,113,18.3829346,113,17   c0-2.1748657-1.7380371-3.9354858-3.8999023-3.9899292c0.0075684-0.0968628,0.0324707-0.1865234,0.0323486-0.2861938   c-0.0013428-1.3305054-0.8199463-2.581604-2.0334473-3.1272583c-0.4781494-0.2150269-0.9667969-0.3162231-1.4420166-0.319458   c-0.9331055-0.0062866-1.8254395-0.4781494-2.2109375-1.328064c-0.4902344-1.0809937-1.4599609-1.9272461-2.708374-2.2094116   c-1.4771729-0.3338013-2.942749,0.2123413-3.8596191,1.2905273c-0.5926514,0.6970825-1.5712891,0.8399048-2.4486084,0.5800171   c-0.3459473-0.1025391-0.717041-0.1590576-1.1102295-0.1600952c-1.5740967-0.0040283-3.0270996,0.9442139-3.6312256,2.397644   c-0.2209473,0.5319214-0.3197021,1.0738525-0.3125,1.5998535c0.0141602,1.0369873-0.5905762,1.9683228-1.557373,2.3433838   c-1.3935547,0.5405884-2.5004883,1.7355347-2.8553467,3.305542c-0.3487549,1.5432129,0.1226807,3.0681763,1.1109619,4.1560669   C84.2919922,21.8515625,83,23.5163574,83,25.5C83,26.8745117,83.6293945,28.0898438,84.6008301,28.9152832z M97,24   c0-1.5758667-0.9194336-2.9255981-2.2436523-3.5775146C95.5068359,19.8771973,96,18.9987183,96,18   c0-0.8695068-0.3757324-1.6461182-0.9667969-2.1940308c0.6796875-0.2504883,1.236084-0.737793,1.5823975-1.3643799   C97.1604004,14.7913208,97.8045654,15,98.5,15c1.3552246,0,2.5170898-0.7784424,3.0986328-1.9050293   c0.1875-0.093689,0.3745117-0.1895752,0.5454102-0.3109741c0.0041504,1.59375,1.0981445,3.0321045,2.71875,3.3983154   c0.0727539,0.0164795,0.1445312,0.0118408,0.2172852,0.0235596C105.0283203,16.4626465,105,16.7279663,105,17   c0,1.0197144,0.3933105,1.9399414,1.0214844,2.6464233c0.276001,0.3105469,0.5966797,0.5744019,0.956543,0.7868652   c-0.12146,2.2515259-1.171875,4.257019-2.7814941,5.6369019c-0.0310059,0.0266724-0.0593262,0.0564575-0.0909424,0.0827026   c-1.0389404,0.8635254-2.300415,1.463501-3.6829834,1.7130127C99.960083,27.9494019,99.4862061,28,99,28   c-1.28125,0-2.4890137-0.3102417-3.5637207-0.8480225C96.3811035,26.4203491,97,25.2874756,97,24z"></path><path d="M97,98c-5.5228271,0-10,4.4771118-10,10c0,5.5228271,4.4771729,10,10,10s10-4.4771729,10-10   C107,102.4771118,102.5228271,98,97,98z M97,116c-3.7458496,0-6.8896484-2.5912476-7.7554932-6.072937   c6.2258301-0.0932617,9.1820068-2.7114258,10.5777588-5.2993164c0.9090576,1.3615112,2.4810791,2.5728149,5.1501465,2.8280029   C104.9846191,107.6364136,105,107.8162842,105,108C105,112.4111938,101.4112549,116,97,116z"></path><path d="M122,54c0-2.7614136-2.2385254-5-5-5s-5,2.2385864-5,5c0,0.3442993,0.0350342,0.6804199,0.1013184,1.005127   C112.0671387,55.0047607,112.0341797,55,112,55c-5.5228271,0-10,4.4771729-10,10s4.4771729,10,10,10s10-4.4771729,10-10   c0-2.5627441-0.97229-4.8927612-2.5574951-6.6623535C120.9619141,57.4797363,122,55.8693848,122,54z M112,73   c-4.19104,0-7.6330566-3.2411499-7.9669189-7.3475952c4.8533936-0.5234375,7.0262451-3.5325317,7.9802246-5.852417   c0.8822021,2.8079834,2.9697266,6.2437744,7.8790283,6.4501953C119.2890625,70.0681763,115.9849854,73,112,73z"></path><path d="M29.8795166,69.5870361c0.1656494,1.0979614,0.2808838,2.2648926,0.2808838,3.409668   c0,0.8876343,0.7192383,1.6072998,1.6071777,1.6072998c0.8878174,0,1.6071777-0.7196655,1.6071777-1.6072998   c0-1.8023682-0.2390137-3.6264038-0.5397949-5.2098999c0.2938232,0.1381836,0.5999756,0.2694702,0.934082,0.3834839   c0.1721191,0.0585938,0.3469238,0.0865479,0.519043,0.0865479c0.6687012,0,1.293457-0.4205933,1.5209961-1.0887451   c0.2866211-0.84021-0.1616211-1.753479-1.0019531-2.0401611c-2.7111816-0.9250488-3.1203613-3.2087402-3.1339111-3.2859497   c-0.0115967-0.085022-0.0303955-0.1687012-0.055542-0.2508545c-1.4453125-4.6865234-6.2810059-6.4914551-8.0059814-6.9967651   c-0.7763672-1.2948608-2.3023682-2.4125977-4.864502-2.4125977c-3.1726074,0-4.6726074,1.6538086-5.8780518,2.9827271   c-1.0463867,1.1539307-1.7380371,1.9159546-3.4619141,1.9159546c-0.8879395,0-1.6072998,0.7196045-1.6072998,1.6072388   c0,0.8875732,0.7193604,1.6072388,1.6072998,1.6072388c0.6796875,0,1.2692871-0.088501,1.8085938-0.222229   c-0.7106934,0.5238037-1.3977051,0.8027344-1.8085938,0.8027344c-0.8879395,0-1.6072998,0.7196045-1.6072998,1.6072388   c0,0.8875732,0.7193604,1.6072388,1.6072998,1.6072388c0.505127,0,1.0788574-0.1152344,1.6776123-0.3297119   c-0.0053711,0.0429077-0.0147705,0.0844727-0.0195312,0.1275635c-0.6561279,0.4529419-1.2762451,0.6834717-1.6580811,0.6834717   c-0.8879395,0-1.6072998,0.7196655-1.6072998,1.6072388c0,0.8876343,0.7193604,1.6072388,1.6072998,1.6072388   c0.5461426,0,1.1723633-0.1351318,1.8242188-0.385437c-1.2237549,1.0936279-2.6746826,1.788147-3.8601074,1.788147   c-0.8876953,0-1.6071777,0.7196655-1.6071777,1.6072388s0.7194824,1.6072388,1.6071777,1.6072388   c1.5942383,0,3.2479248-0.6114502,4.7277832-1.6125488c-0.6818848,0.8842773-1.5219727,1.5480347-2.4790039,1.9026489   c-0.8319092,0.3084717-1.2567139,1.2332153-0.9484863,2.0656128c0.2406006,0.6481934,0.854248,1.0491943,1.5073242,1.0491943   c0.1856689,0,0.3745117-0.0324097,0.5587158-0.100708c1.5385742-0.5701294,2.8780518-1.6011353,3.9278564-2.9708862   C16.3903809,74.1502686,18.5955811,75,21,75C24.8679199,75,28.2160645,72.8001709,29.8795166,69.5870361z M21,73   c-2.020752,0-3.8634033-0.7590942-5.2730713-1.9993286c-0.6331787-0.5571899-1.1761475-1.2114868-1.6082764-1.9411621   c-0.2327881-0.3930054-0.4318848-0.8066406-0.595459-1.2388916c-0.1773682-0.4685059-0.3117676-0.956543-0.3989258-1.4619141   c-0.0656738-0.3822021-0.1054688-0.772644-0.1147461-1.1712036C13.0080566,65.1245728,13,65.0632935,13,65   c0-0.2232056,0.0155029-0.442688,0.0334473-0.6613159c0.1296387-0.0067749,0.2561035-0.0162354,0.3813477-0.0267944   c0.7348633-0.0618286,1.4036865-0.1825562,2.003418-0.3595581c0.5310059-0.1567383,1.0068359-0.3574219,1.4421387-0.5871582   c2.4709473-1.3042603,3.4812012-3.6508789,3.880249-5.56604c0.1212158,1.673584,0.6020508,3.5662231,2.0814209,4.2592773   c0.8232422,0.3856812,1.4665527,1.0640259,1.7264404,1.9352417c0.4232178,1.4188843,1.4821777,3.3389282,4.0130615,3.5961914   C27.4819336,70.7321777,24.5040283,73,21,73z"></path><path d="M78.6796875,23h1c0.5527344,0,1-0.4477539,1-1s-0.4472656-1-1-1h-1c-0.5527344,0-1,0.4477539-1,1   S78.1269531,23,78.6796875,23z"></path><path d="M48.6796875,23h1c0.5527344,0,1-0.4477539,1-1s-0.4472656-1-1-1h-1c-0.5527344,0-1,0.4477539-1,1   S48.1269531,23,48.6796875,23z"></path><path d="M58.6796875,23h1c0.5527344,0,1-0.4477539,1-1s-0.4472656-1-1-1h-1c-0.5527344,0-1,0.4477539-1,1   S58.1269531,23,58.6796875,23z"></path><path d="M63.6796875,23h1c0.5527344,0,1-0.4477539,1-1s-0.4472656-1-1-1h-1c-0.5527344,0-1,0.4477539-1,1   S63.1269531,23,63.6796875,23z"></path><path d="M68.6796875,23h1c0.5527344,0,1-0.4477539,1-1s-0.4472656-1-1-1h-1c-0.5527344,0-1,0.4477539-1,1   S68.1269531,23,68.6796875,23z"></path><path d="M73.6796875,23h1c0.5527344,0,1-0.4477539,1-1s-0.4472656-1-1-1h-1c-0.5527344,0-1,0.4477539-1,1   S73.1269531,23,73.6796875,23z"></path><path d="M53.6796875,23h1c0.5527344,0,1-0.4477539,1-1s-0.4472656-1-1-1h-1c-0.5527344,0-1,0.4477539-1,1   S53.1269531,23,53.6796875,23z"></path><path d="M71,105h-1c-0.5527344,0-1,0.4477539-1,1s0.4472656,1,1,1h1c0.5527344,0,1-0.4477539,1-1S71.5527344,105,71,105z"></path><path d="M66,105h-1c-0.5527344,0-1,0.4477539-1,1s0.4472656,1,1,1h1c0.5527344,0,1-0.4477539,1-1S66.5527344,105,66,105z"></path><path d="M61,105h-1c-0.5527344,0-1,0.4477539-1,1s0.4472656,1,1,1h1c0.5527344,0,1-0.4477539,1-1S61.5527344,105,61,105z"></path><path d="M76,105h-1c-0.5527344,0-1,0.4477539-1,1s0.4472656,1,1,1h1c0.5527344,0,1-0.4477539,1-1S76.5527344,105,76,105z"></path><path d="M51,105h-1c-0.5527344,0-1,0.4477539-1,1s0.4472656,1,1,1h1c0.5527344,0,1-0.4477539,1-1S51.5527344,105,51,105z"></path><path d="M56,105h-1c-0.5527344,0-1,0.4477539-1,1s0.4472656,1,1,1h1c0.5527344,0,1-0.4477539,1-1S56.5527344,105,56,105z"></path><path d="M81,105h-1c-0.5527344,0-1,0.4477539-1,1s0.4472656,1,1,1h1c0.5527344,0,1-0.4477539,1-1S81.5527344,105,81,105z"></path><path d="M41,62h-1c-0.5527344,0-1,0.4477539-1,1s0.4472656,1,1,1h1c0.5527344,0,1-0.4477539,1-1S41.5527344,62,41,62z"></path><path d="M35,64h1c0.5527344,0,1-0.4477539,1-1s-0.4472656-1-1-1h-1c-0.5527344,0-1,0.4477539-1,1S34.4472656,64,35,64z"></path><path d="M92,62c-0.5527344,0-1,0.4477539-1,1s0.4472656,1,1,1h1c0.5527344,0,1-0.4477539,1-1s-0.4472656-1-1-1H92z"></path><path d="M99,63c0-0.5522461-0.4472656-1-1-1h-1c-0.5527344,0-1,0.4477539-1,1s0.4472656,1,1,1h1C98.5527344,64,99,63.5522461,99,63   z"></path><path d="M27.9335938,88.3149414c0.1748047,0.3525391,0.5292969,0.5566406,0.8974609,0.5566406   c0.1484375,0,0.2998047-0.0332031,0.4423828-0.1035156c0.4951172-0.2451172,0.6982422-0.8447266,0.453125-1.3398438   l-0.4433594-0.8964844c-0.2460938-0.4951172-0.84375-0.6982422-1.3398438-0.453125   c-0.4951172,0.2451172-0.6982422,0.8447266-0.453125,1.3398438L27.9335938,88.3149414z"></path><path d="M25.71875,83.8310547c0.1738281,0.3530273,0.5283203,0.5576172,0.8974609,0.5576172   c0.1484375,0,0.2988281-0.0332031,0.4414062-0.1030273c0.4951172-0.2446289,0.6992188-0.8442383,0.4541016-1.3393555   l-0.4423828-0.8964844c-0.2441406-0.4946289-0.8417969-0.6972656-1.3388672-0.4545898   c-0.4951172,0.2446289-0.6992188,0.8442383-0.4541016,1.3393555L25.71875,83.8310547z"></path><path d="M30.1474609,92.796875c0.1738281,0.3530273,0.5283203,0.5576172,0.8974609,0.5576172   c0.1484375,0,0.2988281-0.0332031,0.4414062-0.1030273c0.4951172-0.2446289,0.6992188-0.8442383,0.4541016-1.3393555   l-0.4423828-0.8964844c-0.2431641-0.4946289-0.8417969-0.6972656-1.3388672-0.4545898   c-0.4951172,0.2446289-0.6992188,0.8442383-0.4541016,1.3393555L30.1474609,92.796875z"></path><path d="M24.8544922,77.565918c-0.2460938-0.4951172-0.84375-0.6982422-1.3398438-0.453125   c-0.4951172,0.2451172-0.6982422,0.8447266-0.453125,1.3398438l0.4433594,0.8964844   c0.1748047,0.3525391,0.5292969,0.5566406,0.8974609,0.5566406c0.1484375,0,0.2998047-0.0332031,0.4423828-0.1035156   c0.4951172-0.2451172,0.6982422-0.8447266,0.453125-1.3398438L24.8544922,77.565918z"></path><path d="M98.9257812,95.6352539c0.1425781,0.0703125,0.2929688,0.1035156,0.4414062,0.1035156   c0.3691406,0,0.7236328-0.2045898,0.8974609-0.5576172l0.2626953-0.5322266   c0.2451172-0.4951172,0.0410156-1.0947266-0.4541016-1.3388672c-0.4931641-0.2451172-1.0947266-0.0410156-1.3388672,0.4541016   l-0.2626953,0.5322266C98.2265625,94.7915039,98.4306641,95.3911133,98.9257812,95.6352539z"></path><path d="M106.7177734,79.8613281c-0.4970703-0.2451172-1.0947266-0.0410156-1.3398438,0.453125l-0.4433594,0.8964844   c-0.2451172,0.4951172-0.0419922,1.0947266,0.453125,1.3398438c0.1425781,0.0703125,0.2939453,0.1035156,0.4423828,0.1035156   c0.3681641,0,0.7226562-0.2041016,0.8974609-0.5566406l0.4433594-0.8964844   C107.4160156,80.7060547,107.2128906,80.1064453,106.7177734,79.8613281z"></path><path d="M103.1748047,87.0341797c0.1425781,0.0698242,0.2929688,0.1030273,0.4414062,0.1030273   c0.3691406,0,0.7236328-0.2045898,0.8974609-0.5576172l0.4423828-0.8964844   c0.2451172-0.4951172,0.0410156-1.0947266-0.4541016-1.3393555c-0.4951172-0.2426758-1.0947266-0.0405273-1.3388672,0.4545898   l-0.4423828,0.8964844C102.4755859,86.1899414,102.6796875,86.7895508,103.1748047,87.0341797z"></path><path d="M108.9306641,75.3779297c-0.4960938-0.2421875-1.0947266-0.0405273-1.3388672,0.4545898l-0.4423828,0.8964844   c-0.2451172,0.4951172-0.0410156,1.0947266,0.4541016,1.3393555c0.1425781,0.0698242,0.2929688,0.1030273,0.4414062,0.1030273   c0.3691406,0,0.7236328-0.2045898,0.8974609-0.5576172l0.4423828-0.8964844   C109.6298828,76.222168,109.4257812,75.6225586,108.9306641,75.3779297z"></path><path d="M102.2890625,88.8271484c-0.4970703-0.2451172-1.0947266-0.0415039-1.3398438,0.453125l-0.4433594,0.8964844   c-0.2451172,0.4951172-0.0419922,1.0947266,0.453125,1.3398438c0.1425781,0.0703125,0.2939453,0.1035156,0.4423828,0.1035156   c0.3681641,0,0.7226562-0.2041016,0.8974609-0.5566406l0.4433594-0.8964844   C102.9873047,89.671875,102.7841797,89.0722656,102.2890625,88.8271484z"></path><path d="M104.0693359,44.5561523c0.1738281,0.3530273,0.5283203,0.5576172,0.8974609,0.5576172   c0.1484375,0,0.2988281-0.0332031,0.4414062-0.1030273c0.4951172-0.2446289,0.6992188-0.8442383,0.4541016-1.3393555   l-0.4423828-0.8964844c-0.2441406-0.4956055-0.8427734-0.6987305-1.3388672-0.4545898   c-0.4951172,0.2446289-0.6992188,0.8442383-0.4541016,1.3393555L104.0693359,44.5561523z"></path><path d="M102.7529297,40.6308594c0.1484375,0,0.2998047-0.0332031,0.4423828-0.1035156   c0.4951172-0.2451172,0.6982422-0.8447266,0.453125-1.3398438l-0.4433594-0.8964844   c-0.2460938-0.4951172-0.84375-0.6987305-1.3398438-0.453125c-0.4951172,0.2451172-0.6982422,0.8447266-0.453125,1.3398438   l0.4433594,0.8964844C102.0302734,40.4267578,102.3847656,40.6308594,102.7529297,40.6308594z"></path><path d="M100.5380859,36.1479492c0.1484375,0,0.2988281-0.0332031,0.4414062-0.1030273   c0.4951172-0.2446289,0.6992188-0.8442383,0.4541016-1.3393555l-0.4423828-0.8964844   c-0.2441406-0.4956055-0.8417969-0.6987305-1.3388672-0.4545898c-0.4951172,0.2446289-0.6992188,0.8442383-0.4541016,1.3393555   l0.4423828,0.8964844C99.8144531,35.9433594,100.1689453,36.1479492,100.5380859,36.1479492z"></path><path d="M106.2841797,49.0400391c0.1748047,0.3530273,0.5283203,0.5571289,0.8974609,0.5571289   c0.1484375,0,0.2998047-0.0332031,0.4423828-0.1035156c0.4951172-0.2446289,0.6982422-0.8447266,0.453125-1.3393555   l-0.4433594-0.8969727c-0.2451172-0.4946289-0.8427734-0.6982422-1.3398438-0.4536133   c-0.4951172,0.2446289-0.6982422,0.8447266-0.453125,1.3393555L106.2841797,49.0400391z"></path><path d="M108.4501953,53.425293c0.1738281,0.3530273,0.5283203,0.5576172,0.8974609,0.5576172   c0.1484375,0,0.2998047-0.0332031,0.4414062-0.1035156c0.4951172-0.2441406,0.6992188-0.84375,0.4541016-1.3388672   l-0.3945312-0.7993164c-0.2441406-0.4951172-0.8447266-0.6992188-1.3388672-0.4541016   c-0.4951172,0.2441406-0.6992188,0.84375-0.4541016,1.3388672L108.4501953,53.425293z"></path><path d="M82.1074219,84.7924805c-0.3017578-0.4609375-0.9208984-0.5878906-1.3847656-0.2856445   c-0.4609375,0.3037109-0.5888672,0.9238281-0.2851562,1.3852539l0.5498047,0.8354492   c0.1914062,0.2919922,0.5107422,0.4501953,0.8359375,0.4501953c0.1884766,0,0.3789062-0.0532227,0.5488281-0.1645508   c0.4609375-0.3037109,0.5888672-0.9238281,0.2851562-1.3852539L82.1074219,84.7924805z"></path><path d="M84.8544922,88.9702148c-0.3027344-0.4604492-0.921875-0.5883789-1.3847656-0.2856445   c-0.4609375,0.3037109-0.5888672,0.9238281-0.2851562,1.3852539l0.5498047,0.8354492   c0.1914062,0.2919922,0.5107422,0.4501953,0.8359375,0.4501953c0.1884766,0,0.3789062-0.0532227,0.5488281-0.1645508   c0.4609375-0.3037109,0.5888672-0.9238281,0.2851562-1.3852539L84.8544922,88.9702148z"></path><path d="M88.9648438,97.0395508c-0.4609375,0.3037109-0.5888672,0.9238281-0.2851562,1.3852539l0.2539062,0.3857422   c0.1914062,0.2919922,0.5107422,0.4501953,0.8359375,0.4501953c0.1884766,0,0.3798828-0.0532227,0.5488281-0.1645508   c0.4609375-0.3037109,0.5888672-0.9238281,0.2851562-1.3852539l-0.2539062-0.3857422   C90.0478516,96.8642578,89.4267578,96.7363281,88.9648438,97.0395508z"></path><path d="M87.8652344,95.3686523c0.4619141-0.3032227,0.5898438-0.9233398,0.2871094-1.3847656l-0.5488281-0.8354492   c-0.3037109-0.4614258-0.9238281-0.5883789-1.3847656-0.2871094c-0.4619141,0.3032227-0.5898438,0.9233398-0.2871094,1.3847656   l0.5488281,0.8354492c0.1923828,0.2924805,0.5117188,0.4511719,0.8369141,0.4511719   C87.5058594,95.5327148,87.6962891,95.4794922,87.8652344,95.3686523z"></path><path d="M49.1865234,88.6845703c-0.4628906-0.3027344-1.0820312-0.1748047-1.3847656,0.2856445l-0.5498047,0.8354492   c-0.3037109,0.4614258-0.1757812,1.081543,0.2851562,1.3852539c0.1699219,0.1113281,0.3603516,0.1645508,0.5488281,0.1645508   c0.3251953,0,0.6445312-0.1582031,0.8359375-0.4501953l0.5498047-0.8354492   C49.7753906,89.6083984,49.6474609,88.9882812,49.1865234,88.6845703z"></path><path d="M45.0546875,93.1479492l-0.5498047,0.8354492c-0.3037109,0.4614258-0.1757812,1.081543,0.2851562,1.3852539   c0.1699219,0.1113281,0.3603516,0.1645508,0.5488281,0.1645508c0.3251953,0,0.6445312-0.1582031,0.8359375-0.4501953   l0.5498047-0.8354492c0.3037109-0.4614258,0.1757812-1.081543-0.2851562-1.3852539   C45.9775391,92.559082,45.3574219,92.6870117,45.0546875,93.1479492z"></path><path d="M51.9335938,84.5068359c-0.4628906-0.3022461-1.0820312-0.175293-1.3847656,0.2856445l-0.5498047,0.8354492   c-0.3037109,0.4614258-0.1757812,1.081543,0.2851562,1.3852539c0.1699219,0.1113281,0.3603516,0.1645508,0.5488281,0.1645508   c0.3251953,0,0.6445312-0.1582031,0.8359375-0.4501953l0.5498047-0.8354492   C52.5224609,85.4306641,52.3945312,84.8105469,51.9335938,84.5068359z"></path><path d="M44.3886719,35.8027344l0.6210938,0.7841797c0.1972656,0.2490234,0.4902344,0.3789062,0.7851562,0.3789062   c0.2167969,0,0.4365234-0.0708008,0.6201172-0.2163086c0.4326172-0.3427734,0.5058594-0.9716797,0.1630859-1.4047852   l-0.6210938-0.7841797c-0.3427734-0.4326172-0.9726562-0.5068359-1.4052734-0.1625977   C44.1191406,34.7407227,44.0458984,35.3696289,44.3886719,35.8027344z"></path><path d="M48.1123047,40.5068359c0.1972656,0.25,0.4892578,0.3798828,0.7851562,0.3798828   c0.2167969,0,0.4355469-0.0703125,0.6191406-0.2158203c0.4335938-0.3422852,0.5068359-0.9711914,0.1640625-1.4042969   l-0.6201172-0.7841797c-0.3408203-0.4321289-0.9697266-0.5073242-1.4042969-0.1640625   c-0.4335938,0.3422852-0.5068359,0.9711914-0.1640625,1.4042969L48.1123047,40.5068359z"></path><path d="M43.3105469,32.8295898c0.4335938-0.3422852,0.5068359-0.9711914,0.1640625-1.4042969l-0.6201172-0.7841797   c-0.3417969-0.4331055-0.9697266-0.5078125-1.4042969-0.1640625c-0.4335938,0.3422852-0.5068359,0.9711914-0.1640625,1.4042969   l0.6201172,0.7841797c0.1972656,0.25,0.4892578,0.3798828,0.7851562,0.3798828   C42.9082031,33.0454102,43.1269531,32.9750977,43.3105469,32.8295898z"></path><path d="M50.5947266,43.644043l0.6210938,0.7841797c0.1972656,0.2490234,0.4902344,0.3789062,0.7851562,0.3789062   c0.2167969,0,0.4365234-0.0708008,0.6201172-0.2163086c0.4326172-0.3427734,0.5058594-0.9716797,0.1630859-1.4047852   l-0.6210938-0.7841797c-0.3417969-0.4321289-0.9726562-0.5068359-1.4052734-0.1625977   C50.3251953,42.5820312,50.2519531,43.2109375,50.5947266,43.644043z"></path><path d="M85.0341797,35.4907227l-0.0273438,0.0424805c-0.2988281,0.4643555-0.1513672,1.0615234,0.3134766,1.3608398   c0.1611328,0.1040039,0.34375,0.152832,0.5253906,0.152832c0.3388672,0,0.6757812-0.1713867,0.8701172-0.4741211   c0.2988281-0.4643555,0.1650391-1.0830078-0.2998047-1.3818359C85.9521484,34.8911133,85.3339844,35.0253906,85.0341797,35.4907227   z"></path><path d="M82.5498047,41.0869141c0.1699219,0.1113281,0.3603516,0.1645508,0.5488281,0.1645508   c0.3251953,0,0.6445312-0.1582031,0.8359375-0.4501953l0.5498047-0.8354492   c0.3037109-0.4614258,0.1757812-1.081543-0.2851562-1.3852539c-0.4619141-0.3032227-1.0820312-0.1748047-1.3847656,0.2856445   l-0.5498047,0.8354492C81.9609375,40.1630859,82.0888672,40.7832031,82.5498047,41.0869141z"></path><path d="M80.0673828,43.0439453l-0.5498047,0.8354492c-0.3037109,0.4614258-0.1757812,1.081543,0.2851562,1.3852539   c0.1699219,0.1113281,0.3603516,0.1645508,0.5488281,0.1645508c0.3251953,0,0.6445312-0.1582031,0.8359375-0.4501953   l0.5498047-0.8354492c0.3037109-0.4614258,0.1757812-1.081543-0.2851562-1.3852539   C80.9892578,42.4560547,80.3701172,42.5830078,80.0673828,43.0439453z"></path><path d="M29.1806641,44.7060547c0.1425781,0.0698242,0.2929688,0.1030273,0.4414062,0.1030273   c0.3691406,0,0.7236328-0.2045898,0.8974609-0.5576172l0.4423828-0.8969727   c0.2451172-0.4956055,0.0410156-1.0947266-0.4541016-1.3393555c-0.4960938-0.2431641-1.0947266-0.0395508-1.3388672,0.4545898   l-0.4423828,0.8969727C28.4814453,43.8623047,28.6855469,44.4614258,29.1806641,44.7060547z"></path><path d="M24.7519531,53.671875c0.1425781,0.0698242,0.2929688,0.1030273,0.4414062,0.1030273   c0.3691406,0,0.7236328-0.2045898,0.8974609-0.5576172l0.4423828-0.8964844   c0.2451172-0.4951172,0.0410156-1.0947266-0.4541016-1.3393555c-0.4960938-0.2416992-1.0947266-0.0400391-1.3388672,0.4545898   l-0.4423828,0.8964844C24.0527344,52.8276367,24.2568359,53.4272461,24.7519531,53.671875z"></path><path d="M31.3935547,40.222168c0.1425781,0.0703125,0.2939453,0.1035156,0.4423828,0.1035156   c0.3681641,0,0.7226562-0.2041016,0.8974609-0.5566406l0.4433594-0.8964844   c0.2451172-0.4951172,0.0419922-1.0947266-0.453125-1.3398438c-0.4960938-0.2451172-1.0947266-0.0415039-1.3398438,0.453125   l-0.4433594,0.8964844C30.6953125,39.3774414,30.8984375,39.9770508,31.3935547,40.222168z"></path><path d="M28.2949219,46.4985352c-0.4970703-0.2436523-1.0947266-0.0415039-1.3398438,0.4536133l-0.4433594,0.8969727   c-0.2451172,0.4946289-0.0419922,1.0947266,0.453125,1.3393555c0.1425781,0.0703125,0.2939453,0.1035156,0.4423828,0.1035156   c0.3691406,0,0.7226562-0.2041016,0.8974609-0.5571289l0.4433594-0.8969727   C28.9931641,47.3432617,28.7900391,46.7431641,28.2949219,46.4985352z"></path><path d="M33.609375,35.7397461c0.1425781,0.0698242,0.2929688,0.1030273,0.4414062,0.1030273   c0.3691406,0,0.7236328-0.2045898,0.8974609-0.5576172l0.4423828-0.8964844   c0.2451172-0.4951172,0.0410156-1.0947266-0.4541016-1.3393555c-0.4970703-0.2426758-1.0957031-0.0395508-1.3388672,0.4545898   l-0.4423828,0.8964844C32.9101562,34.8955078,33.1142578,35.4951172,33.609375,35.7397461z"></path></g></svg>
