<svg height='100px' width='100px'  fill="#682712" xmlns="http://www.w3.org/2000/svg" xmlns:xlink="http://www.w3.org/1999/xlink" version="1.1" x="0px" y="0px" viewBox="0 0 128 128" style="enable-background:new 0 0 128 128;" xml:space="preserve"><g><path d="M69.9924316,39.4373779C70.4572754,34.0340576,73.1038818,29.2702637,77,25.9560547V13.0060425   C77,11.8981323,76.1018066,11,74.9938965,11h-60.987793C12.8981934,11,12,11.8981323,12,13.0060425v34.987915   C12,49.1018677,12.8981934,50,14.0061035,50h51.7926025C67.4680176,47.2958984,69.0056152,42.9950562,69.9924316,39.4373779z    M32.4414062,40.8583984c-0.390625,0.390625-0.9023438,0.5859375-1.4140625,0.5859375s-1.0234375-0.1953125-1.4140625-0.5859375   l-8.1396484-8.1391602c-1.34375-1.3452148-1.34375-3.5327148-0.0009766-4.8774414l7.8925781-7.8920898   c0.78125-0.78125,2.046875-0.78125,2.828125,0c0.78125,0.7807617,0.78125,2.0473633,0,2.828125l-7.5019531,7.5024414l7.75,7.75   C33.2226562,38.8110352,33.2226562,40.0776367,32.4414062,40.8583984z M49.1611328,22.2788086L39.859375,40.359375   c-0.3544922,0.6894531-1.0546875,1.0854492-1.7802734,1.0854492c-0.3076172,0-0.6201172-0.0712891-0.9130859-0.222168   c-0.9824219-0.5053711-1.3691406-1.7109375-0.8632812-2.6933594l9.3017578-18.0805664   c0.5048828-0.980957,1.7109375-1.3686523,2.6933594-0.8632812S49.6669922,21.2963867,49.1611328,22.2788086z    M56.0976562,40.8583984c-0.390625,0.390625-0.9023438,0.5859375-1.4140625,0.5859375s-1.0234375-0.1953125-1.4140625-0.5859375   c-0.78125-0.7807617-0.78125-2.0473633,0-2.828125l7.5019531-7.5024414l-7.7490234-7.75   c-0.78125-0.7807617-0.78125-2.0473633,0-2.828125c0.78125-0.78125,2.046875-0.78125,2.828125,0l8.1386719,8.1391602   C64.640625,28.7397461,65,29.605957,65,30.527832s-0.359375,1.7880859-1.0107422,2.4399414L56.0976562,40.8583984z"></path><path d="M74.6142578,31.6931152c-0.0505371,0.083252-0.1025391,0.1654663-0.1517334,0.2496338   c-0.1791992,0.2999878-0.3419189,0.6104126-0.5039062,0.9214478c-0.15625,0.3074951-0.3106689,0.6159668-0.449585,0.9332886   c-0.0512695,0.1139526-0.0998535,0.229187-0.1486816,0.3443604c-0.7392578,1.7420654-1.2265625,3.6164551-1.3826904,5.5883179   C71.4719238,41.5784912,70.0537109,46.3860474,68.0919189,50c-0.5438232,1.0019531-1.1278076,1.9143066-1.7467041,2.6401978   c-0.6265869,0.7349243-0.9467773,1.666626-0.9558105,2.6182251c-0.0029297,0.3095093,0.0255127,0.6211548,0.0891113,0.928772   l0.0129395,0.0620728c0.3779297,1.8269043,1.8378906,3.2264404,3.6727295,3.4887695   c0.4393311,0.0628052,0.9346924,0.1177979,1.4925537,0.1600342c2.6694336,0.2022095,5.3679199-0.6832275,7.223877-2.6125488   c0.2866211-0.2979736,0.5560303-0.6329956,0.8078613-0.9937744c0.0875244-0.1264648,0.1724854-0.2560425,0.2541504-0.3905029   c0.0999756-0.1630859,0.2001953-0.3257446,0.2902832-0.5011597c2.9799805,2.2319946,6.6634521,3.5730591,10.6680908,3.5949097   C89.9343262,58.9951782,89.9665527,59,90,59c0.642334,0,1.276001-0.0366211,1.901001-0.1022339   c3.5462646-0.3724365,6.7818604-1.7773438,9.4102783-3.9046021c1.3391113,2.9098511,3.4134521,4.9049072,6.5463867,4.9049072   c0.8106689,0,1.524292-0.0343628,2.1523438-0.0941162c2.6053467-0.2479248,4.5715332-2.4786987,4.5715332-5.1090088V54.62146   c0-1.4622192-0.6450195-2.8337402-1.7224121-3.8223267c-4.1867676-3.8416748-4.1730957-10.37146-5.5266113-14.6004028   c-1.9406738-7.0181274-8.0081787-12.3200073-15.4379883-13.0975342C91.2717285,23.0360107,90.6401367,23,90,23   c-5.1160889,0-9.7229004,2.1445312-13,5.5714722C76.0942383,29.5186768,75.2973633,30.5661621,74.6142578,31.6931152z    M91.901001,56.8762817C91.2763672,56.9506836,90.6442871,57,90,57c-0.0334473,0-0.0656738-0.0048218-0.098999-0.0050049   c-5.6937256-0.0350952-10.6781006-3.0647583-13.4866943-7.5848389c-1.1994629-1.9303589-2.0026855-4.1271973-2.2871094-6.4868164   c1.0097656-0.0372925,1.9696045-0.180481,2.8728027-0.418457c7.3647461-1.9401855,11.1708984-9.7164917,11.1708984-9.7164917   c0.5054932,1.1975708,1.0955811,2.2528076,1.7301025,3.1950073c0.6312256,0.9373169,1.3077393,1.7526855,2,2.4649048   c2.5987549,2.6737671,5.3917236,3.8686523,6.6234131,4.2932129c0.3879395,0.133667,0.644043,0.4891968,0.6539307,0.8994141   c0.0771484,3.1859131,0.4714355,6.5316162,1.3685303,9.3598022C98.177002,55.0861206,95.1945801,56.4838867,91.901001,56.8762817z"></path><path d="M99.9171143,64.0463257V63.03125c0-1.1046143-0.8953857-2-2-2h-7.3133545h-2.9309082h-3.6669922   c-1.1046143,0-2,0.8953857-2,2V64h-0.0302734c-4.7053223,0-9.1721191,2.071167-12.2121582,5.6625366L58.4715576,83.0021973   l-0.0067139-0.0077515l-6.1269531,7.114502c-0.3950195,0.4587402-0.9538574,0.6949463-1.5164795,0.6949463   c-0.4488525,0-0.9002686-0.1503906-1.2727051-0.4580688l-11.5159912-9.5130005l-2.5513916-3.2069092   c-1.6046143-2.0169067-3.4066162-3.8684692-5.3791504-5.5272217l-4.9573975-4.1686401   c-0.5877686-0.4942017-1.3065186-0.7376709-2.022583-0.7377319c-0.8308105-0.000061-1.6580811,0.3276367-2.2736816,0.9717407   c-1.0695801,1.1190796-1.1652832,2.8502197-0.225708,4.0804443l1.9344482,2.53302   c0.3964844,0.519165,0.5145264,1.1992798,0.31604,1.8216553l-0.6563721,2.0577393   c-0.6523438,2.0454712-0.1619873,4.2835693,1.2856445,5.8690186l0.1229248,0.1345215   c1.6077881,1.7606812,3.4450684,3.2971191,5.4625244,4.5679321l0.0334473-0.0280762l15.8581543,16.3995972   c1.9553223,2.0220337,4.5687256,3.048645,7.1911621,3.048645c2.303833,0,4.614624-0.7919922,6.4932861-2.3970947   l10.0949707-8.6248169c-0.0183105-0.0689697-0.0340576-0.1386108-0.0512695-0.2078857   c-0.2431641-0.9794312-0.3812256-1.9881592-0.3874512-3.0180054c-0.0002441-0.0268555-0.0039062-0.0531006-0.0039062-0.0799561   v-8.4970703c0-0.5522461,0.4472656-1,1-1s1,0.4477539,1,1v8.4970703c0,2.8486328,1.0947266,5.5405273,3.0820312,7.5805664   l0.2529297,0.2114258C73.8730469,102.3027344,74,102.5800781,74,102.871582v0.21521l0.0175781,0.0250244v14.8081665   c0,1.1045532,0.8953857,2,2,2h30.4326172c0.088501,0,0.1724854-0.0157471,0.2578125-0.0268555   c0.0947266,0.0137939,0.1899414,0.0268555,0.288208,0.0268555H117c1.1046143,0,2-0.8954468,2-2V93.9751587v-7.1969604V84   C119,73.263916,110.5339355,64.5289917,99.9171143,64.0463257z M33.0351562,90.3705444l-2.4759521-2.5605469   c-0.2008057-0.2077026-0.4389648-0.3607788-0.6954346-0.4595337c-1.7515869-1.1380005-3.3521729-2.4954224-4.7617188-4.0389404   l-0.1225586-0.1341553c-0.9622803-1.053894-1.2907715-2.5531616-0.8571777-3.9126587l0.6564941-2.0579224   c0.3966064-1.2437134,0.1602783-2.6056519-0.6320801-3.6431274l-1.9344482-2.5330811   c-0.3441162-0.4505005-0.3095703-1.0748901,0.0820312-1.4846802c0.2180176-0.2280273,0.5119629-0.3535767,0.8277588-0.3535767   c0.1899414,0,0.4716797,0.0466309,0.7354736,0.2684326l4.9573975,4.1687012   c1.8665771,1.5695801,3.5828857,3.3331299,5.1013184,5.2416382l2.5513916,3.2069092   c0.0865479,0.1087646,0.1842041,0.208252,0.2913818,0.2967529l2.3391113,1.932312l-0.9197998,0.9199219   c-0.3873291-0.1824341-0.8153076-0.2922974-1.2718506-0.2922974c-1.6568604,0-3,1.3431396-3,3   c0,0.456604,0.1098633,0.8846436,0.2924805,1.2720337L33.0351562,90.3705444z M57.3648682,104.730835   c-1.4473877,1.2366943-3.2919922,1.9177246-5.1940918,1.9177246c-2.1893311,0-4.2325439-0.8661499-5.753418-2.4389648   L34.4255371,91.8083496l1.1810303-1.1811523c0.3946533,0.1911011,0.8319092,0.3074951,1.2999268,0.3074951   c1.6568604,0,3-1.3431396,3-3c0-0.4680176-0.1164551-0.9053955-0.3076172-1.3001099l1.0480957-1.0480957l7.6279297,6.3012695   c0.71521,0.5907593,1.6196289,0.9161377,2.5466309,0.9161377c1.1661377,0,2.2712402-0.5065918,3.0318604-1.3898315   l3.8240967-4.4406128l9.4616699,9.4064941L57.3648682,104.730835z M85,92h-7c-0.5527344,0-1-0.4477539-1-1s0.4472656-1,1-1h7   c0.5527344,0,1,0.4477539,1,1S85.5527344,92,85,92z M94.7790527,86.1221313c-1.1044922,0-2-0.8954468-2-2   c0-1.1046143,0.8955078-2,2-2c1.1046143,0,2,0.8953857,2,2C96.7790527,85.2266846,95.883667,86.1221313,94.7790527,86.1221313z    M94.7790527,78.2019653c-1.1044922,0-2-0.8954468-2-2c0-1.1046143,0.8955078-2,2-2c1.1046143,0,2,0.8953857,2,2   C96.7790527,77.3065186,95.883667,78.2019653,94.7790527,78.2019653z M100.6708984,68.7001953   c-2.9375,1.3286133-6.2509766,1.9472656-10.4287109,1.9472656c-6.7900391,0-10.3466797-1.8999023-10.4951172-1.980957   c-0.484375-0.2646484-0.6630859-0.8720703-0.3984375-1.3569336c0.265625-0.4833984,0.8691406-0.6606445,1.3554688-0.3994141   c0.0703125,0.0375977,3.3457031,1.7373047,9.5380859,1.7373047c3.8837891,0,6.9355469-0.5625,9.6044922-1.7695312   c0.5029297-0.2280273,1.0957031-0.0043945,1.3232422,0.4990234S101.1738281,68.4726562,100.6708984,68.7001953z M117,118.0079651   h-8.5576172c0-0.1217346,0.0070801-0.153717,0.0053711-0.1878357l-1.0871582-21.7468262   c-0.0561523-1.1417236,0.8544922-2.0981445,1.9975586-2.0981445H117V118.0079651z"></path></g></svg>
