<svg width="34" height="34" viewBox="0 0 34 34" fill="none" xmlns="http://www.w3.org/2000/svg">
<path d="M10.693 31.025C23.528 31.025 30.532 20.4 30.532 11.186V10.285C31.892 9.282 33.065 8.075 34 6.664C32.725 7.225 31.382 7.599 29.988 7.769C31.4415 6.89552 32.5288 5.52436 33.048 3.91C31.688 4.726 30.192 5.287 28.628 5.61C27.5817 4.47537 26.1884 3.72011 24.6667 3.46265C23.1449 3.20519 21.5807 3.46011 20.2194 4.18742C18.8582 4.91474 17.7768 6.0733 17.1449 7.48142C16.513 8.88954 16.3664 10.4676 16.728 11.968C13.9549 11.8247 11.243 11.0998 8.76823 9.84043C6.29346 8.58108 4.11117 6.8154 2.363 4.658C1.46192 6.19488 1.18356 8.01846 1.58508 9.75418C1.98661 11.4899 3.03753 13.006 4.522 13.991C3.417 13.94 2.329 13.651 1.36 13.09V13.175C1.35653 14.7901 1.91405 16.3562 2.93729 17.6058C3.96053 18.8554 5.38596 19.7109 6.97 20.026C5.93906 20.3076 4.85718 20.3483 3.808 20.145C4.25151 21.5313 5.11789 22.744 6.2856 23.6129C7.4533 24.4818 8.86372 24.9634 10.319 24.99C8.87328 26.1262 7.21777 26.9662 5.44716 27.4621C3.67654 27.958 1.82554 28.1 0 27.88C3.19039 29.927 6.90238 31.0129 10.693 31.008" />
</svg>
