<svg viewBox="0 0 344 67" fill="none" xmlns="http://www.w3.org/2000/svg">
  <path d="M10.4023 25.0059H13.7227C16.9766 25.0059 19.3783 24.4635 20.9277 23.3789C22.4772 22.2943 23.252 20.5898 23.252 18.2656C23.252 15.9635 22.4551 14.3255 20.8613 13.3516C19.2897 12.3776 16.8438 11.8906 13.5234 11.8906H10.4023V25.0059ZM10.4023 33.373V52H0.109375V3.45703H14.2539C20.8503 3.45703 25.7311 4.66341 28.8965 7.07617C32.0618 9.4668 33.6445 13.1081 33.6445 18C33.6445 20.8555 32.8587 23.401 31.2871 25.6367C29.7155 27.8503 27.4909 29.5879 24.6133 30.8496C31.918 41.7624 36.6771 48.8125 38.8906 52H27.4688L15.8809 33.373H10.4023Z" fill="black"/>
  <path d="M56.8562 21.3867C54.709 21.3867 53.0267 22.0729 51.8093 23.4453C50.5918 24.7956 49.8946 26.7214 49.7175 29.2227H63.9284C63.8842 26.7214 63.2312 24.7956 61.9695 23.4453C60.7077 22.0729 59.0033 21.3867 56.8562 21.3867ZM58.2839 52.6641C52.3073 52.6641 47.6368 51.015 44.2722 47.7168C40.9076 44.4186 39.2253 39.748 39.2253 33.7051C39.2253 27.485 40.7748 22.6816 43.8737 19.2949C46.9948 15.8861 51.3002 14.1816 56.7898 14.1816C62.0359 14.1816 66.1198 15.6758 69.0417 18.6641C71.9636 21.6523 73.4245 25.7806 73.4245 31.0488V35.9629H49.4851C49.5958 38.8405 50.448 41.0872 52.0417 42.7031C53.6355 44.319 55.8711 45.127 58.7487 45.127C60.9844 45.127 63.0984 44.8945 65.0905 44.4297C67.0827 43.9648 69.1635 43.2233 71.3327 42.2051V50.041C69.5619 50.9264 67.6693 51.5794 65.655 52C63.6407 52.4427 61.1836 52.6641 58.2839 52.6641Z" fill="black"/>
  <path d="M90.6928 52.6641C86.3321 52.6641 82.9011 50.9707 80.3998 47.584C77.9207 44.1973 76.6811 39.5046 76.6811 33.5059C76.6811 27.4186 77.9428 22.6816 80.4662 19.2949C83.0118 15.8861 86.5092 14.1816 90.9584 14.1816C95.629 14.1816 99.1928 15.9967 101.65 19.627H101.982C101.473 16.86 101.218 14.3919 101.218 12.2227V0.335938H111.378V52H103.609L101.65 47.1855H101.218C98.9161 50.8379 95.4077 52.6641 90.6928 52.6641ZM94.2455 44.5957C96.8354 44.5957 98.728 43.8431 99.9233 42.3379C101.141 40.8327 101.805 38.276 101.915 34.668V33.5723C101.915 29.5879 101.296 26.7324 100.056 25.0059C98.8386 23.2793 96.8465 22.416 94.0795 22.416C91.8217 22.416 90.062 23.3789 88.8002 25.3047C87.5606 27.2083 86.9409 29.9863 86.9409 33.6387C86.9409 37.291 87.5717 40.0358 88.8334 41.873C90.0952 43.6882 91.8992 44.5957 94.2455 44.5957Z" fill="black"/>
  <path d="M149.764 52L146.908 39.0176L143.057 22.6152H142.824L136.051 52H125.16L114.602 14.8789H124.695L128.979 31.3145C129.665 34.2585 130.362 38.3203 131.07 43.5H131.27C131.358 41.8177 131.746 39.1504 132.432 35.498L132.963 32.6758L137.545 14.8789H148.701L153.051 32.6758C153.139 33.1628 153.272 33.8822 153.449 34.834C153.649 35.7858 153.837 36.804 154.014 37.8887C154.191 38.9512 154.346 40.0026 154.479 41.043C154.634 42.0612 154.722 42.8802 154.744 43.5H154.944C155.143 41.9062 155.497 39.7259 156.006 36.959C156.515 34.1699 156.88 32.2884 157.102 31.3145L161.551 14.8789H171.479L160.787 52H149.764Z" fill="black"/>
  <path d="M182.837 33.373C182.837 37.0475 183.434 39.8255 184.63 41.707C185.847 43.5885 187.817 44.5293 190.54 44.5293C193.24 44.5293 195.177 43.5996 196.35 41.7402C197.546 39.8587 198.143 37.0697 198.143 33.373C198.143 29.6986 197.546 26.9427 196.35 25.1055C195.155 23.2682 193.196 22.3496 190.474 22.3496C187.773 22.3496 185.825 23.2682 184.63 25.1055C183.434 26.9206 182.837 29.6764 182.837 33.373ZM208.503 33.373C208.503 39.416 206.909 44.1419 203.722 47.5508C200.534 50.9596 196.096 52.6641 190.407 52.6641C186.843 52.6641 183.7 51.8893 180.977 50.3398C178.255 48.7682 176.163 46.5215 174.702 43.5996C173.241 40.6777 172.511 37.2689 172.511 33.373C172.511 27.3079 174.093 22.5931 177.259 19.2285C180.424 15.8639 184.873 14.1816 190.606 14.1816C194.17 14.1816 197.313 14.9564 200.036 16.5059C202.759 18.0553 204.85 20.2799 206.311 23.1797C207.772 26.0794 208.503 29.4772 208.503 33.373Z" fill="black"/>
  <path d="M222.218 33.373C222.218 37.0475 222.816 39.8255 224.011 41.707C225.229 43.5885 227.199 44.5293 229.921 44.5293C232.622 44.5293 234.559 43.5996 235.732 41.7402C236.927 39.8587 237.525 37.0697 237.525 33.373C237.525 29.6986 236.927 26.9427 235.732 25.1055C234.537 23.2682 232.578 22.3496 229.855 22.3496C227.155 22.3496 225.207 23.2682 224.011 25.1055C222.816 26.9206 222.218 29.6764 222.218 33.373ZM247.884 33.373C247.884 39.416 246.291 44.1419 243.103 47.5508C239.916 50.9596 235.477 52.6641 229.789 52.6641C226.225 52.6641 223.082 51.8893 220.359 50.3398C217.636 48.7682 215.545 46.5215 214.084 43.5996C212.623 40.6777 211.892 37.2689 211.892 33.373C211.892 27.3079 213.475 22.5931 216.64 19.2285C219.806 15.8639 224.255 14.1816 229.988 14.1816C233.552 14.1816 236.695 14.9564 239.418 16.5059C242.14 18.0553 244.232 20.2799 245.693 23.1797C247.154 26.0794 247.884 29.4772 247.884 33.373Z" fill="black"/>
  <path d="M265.285 52.6641C260.925 52.6641 257.494 50.9707 254.992 47.584C252.513 44.1973 251.274 39.5046 251.274 33.5059C251.274 27.4186 252.535 22.6816 255.059 19.2949C257.604 15.8861 261.102 14.1816 265.551 14.1816C270.222 14.1816 273.785 15.9967 276.242 19.627H276.575C276.065 16.86 275.811 14.3919 275.811 12.2227V0.335938H285.971V52H278.201L276.242 47.1855H275.811C273.509 50.8379 270 52.6641 265.285 52.6641ZM268.838 44.5957C271.428 44.5957 273.321 43.8431 274.516 42.3379C275.733 40.8327 276.397 38.276 276.508 34.668V33.5723C276.508 29.5879 275.888 26.7324 274.649 25.0059C273.431 23.2793 271.439 22.416 268.672 22.416C266.414 22.416 264.655 23.3789 263.393 25.3047C262.153 27.2083 261.534 29.9863 261.534 33.6387C261.534 37.291 262.164 40.0358 263.426 41.873C264.688 43.6882 266.492 44.5957 268.838 44.5957Z" fill="black"/>
  <path d="M289.56 66.2773C287.235 66.2773 285.21 66.0339 283.483 65.5469V56.9805C285.254 57.4232 286.87 57.6445 288.331 57.6445C290.589 57.6445 292.205 56.9362 293.179 55.5195C294.153 54.125 294.64 51.9336 294.64 48.9453V3.45703H304.933V48.8789C304.933 54.5456 303.638 58.862 301.048 61.8281C298.458 64.7943 294.629 66.2773 289.56 66.2773Z" fill="black"/>
  <path d="M343.086 38.5195C343.086 42.9023 341.503 46.3555 338.338 48.8789C335.194 51.4023 330.812 52.6641 325.189 52.6641C320.01 52.6641 315.427 51.6901 311.443 49.7422V40.1797C314.719 41.6406 317.486 42.6699 319.744 43.2676C322.024 43.8652 324.105 44.1641 325.986 44.1641C328.244 44.1641 329.97 43.7324 331.166 42.8691C332.383 42.0059 332.992 40.722 332.992 39.0176C332.992 38.0658 332.726 37.2246 332.195 36.4941C331.664 35.7415 330.878 35.0221 329.838 34.3359C328.819 33.6497 326.728 32.554 323.562 31.0488C320.596 29.6543 318.372 28.3151 316.888 27.0312C315.405 25.7474 314.221 24.2533 313.336 22.5488C312.45 20.8444 312.008 18.8522 312.008 16.5723C312.008 12.278 313.457 8.90234 316.357 6.44531C319.279 3.98828 323.308 2.75977 328.443 2.75977C330.967 2.75977 333.368 3.05859 335.648 3.65625C337.95 4.25391 340.352 5.09505 342.853 6.17969L339.533 14.1816C336.943 13.1191 334.796 12.3776 333.092 11.957C331.409 11.5365 329.749 11.3262 328.111 11.3262C326.163 11.3262 324.669 11.7799 323.629 12.6875C322.588 13.5951 322.068 14.7793 322.068 16.2402C322.068 17.1478 322.278 17.9447 322.699 18.6309C323.12 19.2949 323.784 19.9479 324.691 20.5898C325.621 21.2096 327.801 22.3385 331.232 23.9766C335.77 26.1458 338.88 28.3262 340.562 30.5176C342.245 32.6868 343.086 35.3542 343.086 38.5195Z" fill="black"/>
</svg>
